:SAMPLES-PER-SECOND 30
:FRAME-RANGE 1-2045
:FULLY-SPECIFIED
:DEGREES
1023
root  -34.8882 29.579 14.6678 -170.148 -30.728 -177.29
RightUpLeg  -58.7559 -26.7707 -15.8785
RightLeg  57.3057 2.54208 3.82232
RightFoot  -2.6555 -1.74125 22.4183
RightToes  5.82063e-011 0 -3.6325e-017
Spine  42.8545 -1.2627 2.33635
Spine1  -6.68512 -0.933273 1.91912
HEad  -24.3435 10.579 -3.20216
LeftShoulder1  3.03812 -8.48264 -18.8181
LeftArm  -43.0205 -61.0561 -26.6115
LeftForeArm  -3.83169 7.15262 -8.33251
LeftHand  0.035635 3.57938 -3.72812
RightShoulder  13.1767 40.2308 23.1556
RightArm  -42.2165 41.1674 8.95332
RightForeArm  8.11094 -0.0198661 7.30811
RightHand  0.374128 4.87867 3.92294
LeftUpLeg  -57.4924 27.2512 17.5048
LeftLeg  79.3341 -2.0485 -11.5129
LeftFoot  -16.8972 -0.95412 -21.5074
LeftToes  -3.90176e-010 -2.48536e-010 1.05482e-011
1024
root  -35.069 29.2739 14.723 -169.49 -30.4086 -177.416
RightUpLeg  -60.4441 -27.4231 -15.8001
RightLeg  58.3774 2.67147 4.21812
RightFoot  -2.19774 -1.80854 22.1681
RightToes  5.82063e-011 0 -3.6325e-017
Spine  44.6613 -1.35172 3.32132
Spine1  -7.08378 -0.31449 0.124052
HEad  -27.9744 9.4156 -2.4468
LeftShoulder1  2.87476 -8.10239 -18.1952
LeftArm  -48.1574 -62.8553 -23.2384
LeftForeArm  3.15489 3.35452 -7.40641
LeftHand  0.0083037 2.72715 -1.04128
RightShoulder  12.7934 41.5134 21.3083
RightArm  -45.2821 42.133 7.69731
RightForeArm  4.54652 2.50439 7.11893
RightHand  0.822051 5.71247 8.23943
LeftUpLeg  -58.5922 29.0513 16.3059
LeftLeg  80.48 -1.93867 -12.4473
LeftFoot  -18.9475 -1.20743 -19.6894
LeftToes  -3.90176e-010 -2.48536e-010 1.05482e-011
1025
root  -35.2215 29.1569 14.7319 -168.001 -30.9587 -177.911
RightUpLeg  -61.7316 -28.0132 -16.202
RightLeg  58.7222 2.13499 3.32621
RightFoot  -1.79623 -1.93063 22.6967
RightToes  5.82063e-011 0 -3.6325e-017
Spine  45.4521 -0.935309 3.98903
Spine1  -9.25227 0.337977 0.393141
HEad  -29.3728 7.18106 -1.91514
LeftShoulder1  3.25849 -8.41567 -20.955
LeftArm  -49.7044 -63.4179 -18.4926
LeftForeArm  8.20481 -2.7643 -9.31958
LeftHand  -0.00382244 1.63458 -0.159517
RightShoulder  14.8155 44.5331 23.6654
RightArm  -47.2063 40.6935 5.88351
RightForeArm  0.558723 4.37167 7.12108
RightHand  1.03959 5.86101 10.3463
LeftUpLeg  -60.2296 29.0107 14.5657
LeftLeg  80.608 -1.86992 -12.1523
LeftFoot  -20.361 -1.35943 -18.6297
LeftToes  -3.90176e-010 -2.48536e-010 1.05482e-011
1026
root  -35.3592 29.2204 14.7346 -166.567 -31.5029 -178.561
RightUpLeg  -62.1845 -27.8996 -17.0672
RightLeg  58.3718 1.88282 2.83699
RightFoot  -1.44126 -1.97998 22.4755
RightToes  5.82063e-011 0 -3.6325e-017
Spine  45.9956 -0.0122019 4.1908
Spine1  -10.8332 1.23825 1.61055
HEad  -31.2332 5.33215 -2.88984
LeftShoulder1  3.41392 -8.5138 -22.0945
LeftArm  -52.5031 -65.5681 -14.88
LeftForeArm  13.8613 -7.13583 -9.76725
LeftHand  -0.0251535 0.68733 0.535237
RightShoulder  15.8978 46.1123 24.8063
RightArm  -46.9328 40.002 4.94838
RightForeArm  0.471072 6.73742 7.80744
RightHand  1.31178 6.51277 12.3666
LeftUpLeg  -61.1622 28.095 13.1079
LeftLeg  80.0162 -1.89287 -11.4179
LeftFoot  -21.2929 -1.48474 -18.374
LeftToes  -3.90176e-010 -2.48536e-010 1.05482e-011
1027
root  -35.5103 29.3259 14.6971 -165.908 -31.7213 -178.823
RightUpLeg  -61.8034 -27.1151 -17.9944
RightLeg  57.8349 1.35012 1.86065
RightFoot  -1.29148 -2.04972 22.9228
RightToes  5.82063e-011 0 -3.6325e-017
Spine  46.2323 0.300455 4.93034
Spine1  -11.8046 1.85686 1.48646
HEad  -32.9633 4.24195 -3.27174
LeftShoulder1  3.34404 -8.62304 -21.2088
LeftArm  -53.3837 -67.77 -9.50236
LeftForeArm  14.3915 -11.4053 -9.3193
LeftHand  -0.0643928 0.153817 1.42304
RightShoulder  16.5649 47.0698 25.4757
RightArm  -44.2272 40.2204 4.84607
RightForeArm  2.20992 8.5245 8.7341
RightHand  1.36426 7.13224 12.2045
LeftUpLeg  -61.2665 27.6648 12.4687
LeftLeg  79.5871 -1.95908 -11.2724
LeftFoot  -21.761 -1.54356 -18.2178
LeftToes  -3.90176e-010 -2.48536e-010 1.05482e-011
1028
root  -35.6595 29.521 14.5829 -166.253 -32.6506 -178.895
RightUpLeg  -59.7532 -26.8907 -19.0182
RightLeg  57.1403 0.883253 1.02778
RightFoot  -1.72764 -2.0344 23.7308
RightToes  5.82063e-011 0 -3.6325e-017
Spine  46.0384 0.39102 5.34994
Spine1  -11.6476 2.00437 2.33478
HEad  -34.8433 3.82299 -3.81155
LeftShoulder1  3.06797 -8.57529 -18.8748
LeftArm  -58.0336 -69.6919 -2.82846
LeftForeArm  13.9832 -14.2541 -8.05073
LeftHand  -0.116029 0.289157 2.63201
RightShoulder  16.7391 47.6162 25.4311
RightArm  -40.8663 40.8859 5.53929
RightForeArm  1.12456 10.2075 9.26621
RightHand  1.40448 7.32965 12.3674
LeftUpLeg  -60.1848 26.8083 12.5194
LeftLeg  78.754 -2.16188 -11.4628
LeftFoot  -22.2728 -1.60275 -18.0096
LeftToes  -3.90176e-010 -2.48536e-010 1.05482e-011
1029
root  -35.8105 29.635 14.342 -166.282 -32.6949 -179.432
RightUpLeg  -58.5447 -26.2359 -20.2738
RightLeg  57.206 0.637312 0.619277
RightFoot  -2.20934 -1.98036 24.2641
RightToes  5.82063e-011 0 -3.6325e-017
Spine  44.8052 0.366509 5.17945
Spine1  -11.1718 2.03534 1.46546
HEad  -36.6048 3.48219 -3.39199
LeftShoulder1  2.58023 -8.031 -15.5863
LeftArm  -62.3722 -70.9724 3.4033
LeftForeArm  10.362 -17.6003 -6.44902
LeftHand  -0.124938 0.580623 2.97403
RightShoulder  17.4258 47.2026 27.1072
RightArm  -35.1583 41.3281 6.86447
RightForeArm  -3.15749 14.0226 8.81983
RightHand  1.59142 7.63715 13.6999
LeftUpLeg  -58.5373 27.009 12.1607
LeftLeg  77.961 -2.38733 -11.7799
LeftFoot  -23.8312 -1.76025 -17.2732
LeftToes  -3.90176e-010 -2.48536e-010 1.05482e-011
1030
root  -36.0651 29.8191 14.053 -167.597 -32.7268 -179.448
RightUpLeg  -56.0289 -25.5904 -21.3265
RightLeg  57.0374 0.507864 0.399514
RightFoot  -2.61198 -1.91812 24.5396
RightToes  5.82063e-011 0 -3.6325e-017
Spine  42.6518 0.653232 5.09324
Spine1  -8.54773 2.19444 2.06808
HEad  -38.3306 2.10319 -3.24184
LeftShoulder1  2.00666 -7.04672 -11.9013
LeftArm  -68.3736 -71.9768 8.0411
LeftForeArm  8.52745 -21.4702 -4.77827
LeftHand  -0.14971 0.393928 3.46587
RightShoulder  16.9455 45.6769 27.2953
RightArm  -27.3226 41.2065 9.99915
RightForeArm  -12.4719 20.3435 6.44441
RightHand  1.51508 7.25718 13.4403
LeftUpLeg  -55.506 26.2063 13.1382
LeftLeg  77.3831 -2.45579 -11.4888
LeftFoot  -25.0477 -1.97009 -17.5194
LeftToes  -3.90176e-010 -2.48536e-010 1.05482e-011
1031
root  -36.4004 30.0811 13.708 -169.394 -31.7897 -179.541
RightUpLeg  -53.1305 -24.059 -22.4728
RightLeg  56.4682 0.322241 0.0873624
RightFoot  -2.83835 -1.85216 24.3069
RightToes  5.82063e-011 0 -3.6325e-017
Spine  40.1819 0.766245 5.00981
Spine1  -5.16348 2.25807 1.77709
HEad  -39.7239 0.582942 -2.1321
LeftShoulder1  1.41116 -5.49507 -8.18288
LeftArm  -78.5896 -72.6711 13.3118
LeftForeArm  11.6942 -25.0119 -4.7413
LeftHand  -0.170576 0.618191 4.11584
RightShoulder  16.7644 43.3904 28.745
RightArm  -25.5537 40.3073 12.9653
RightForeArm  -14.8001 26.7839 6.49913
RightHand  1.35217 6.64152 12.6118
LeftUpLeg  -51.3428 25.1027 14.5963
LeftLeg  76.8905 -2.37252 -10.5685
LeftFoot  -25.6801 -2.24508 -18.9175
LeftToes  -3.90176e-010 -2.48536e-010 1.05482e-011
1032
root  -36.7995 30.4974 13.2861 -171.513 -30.2743 -179.87
RightUpLeg  -49.5563 -22.5109 -23.5823
RightLeg  55.1244 0.530468 0.402769
RightFoot  -3.09669 -1.76687 23.8918
RightToes  5.82063e-011 0 -3.6325e-017
Spine  37.7993 0.812781 4.24532
Spine1  -3.81112 1.92249 2.42323
HEad  -38.4759 0.170941 -2.03977
LeftShoulder1  1.32614 -5.25456 -7.57733
LeftArm  -78.8617 -70.9928 12.8227
LeftForeArm  14.2284 -28.6448 -5.42609
LeftHand  -0.191307 0.42528 4.46683
RightShoulder  18.5876 41.5292 34.3611
RightArm  -21.0667 36.6525 15.849
RightForeArm  -12.7107 32.507 7.86184
RightHand  1.30537 6.46457 12.3576
LeftUpLeg  -45.6858 23.8398 15.821
LeftLeg  75.392 -2.30224 -8.98754
LeftFoot  -26.7605 -2.60483 -20.2367
LeftToes  -3.90176e-010 -2.48536e-010 1.05482e-011
1033
root  -37.2686 31.0531 12.7954 -173.764 -28.1617 179.94
RightUpLeg  -45.9538 -21.5063 -24.0582
RightLeg  53.102 1.04508 1.1068
RightFoot  -2.5122 -1.8556 23.5006
RightToes  5.82063e-011 0 -3.6325e-017
Spine  35.395 0.544513 3.69584
Spine1  -2.97095 1.38881 2.93749
HEad  -35.568 0.556377 -2.62117
LeftShoulder1  1.3292 -4.79441 -8.55799
LeftArm  -78.6791 -68.932 12.5412
LeftForeArm  15.6599 -31.1762 -5.9533
LeftHand  -0.18413 0.490796 4.34752
RightShoulder  19.6501 38.4025 39.9609
RightArm  -14.2683 31.7892 18.3406
RightForeArm  -11.1028 38.6871 9.61987
RightHand  1.21682 5.91539 12.091
LeftUpLeg  -39.1851 23.0205 16.8308
LeftLeg  72.9455 -2.17195 -7.00296
LeftFoot  -27.8612 -2.95303 -21.2719
LeftToes  -3.90176e-010 -2.48536e-010 1.05482e-011
